<svg width="166" height="34" viewBox="0 0 166 34" fill="none" xmlns="http://www.w3.org/2000/svg">
<path fill-rule="evenodd" clip-rule="evenodd" d="M22 22.7306V4.5H3V22.7306L12.5 29.7668L22 22.7306ZM25 24.2419L12.5 33.5L0 24.2419V1.5H25V24.2419Z" fill="#01A09A"/>
<path d="M12 26.5V6.5H5V21.5L12 26.5Z" fill="#01A09A"/>
<path d="M50.198 13.28L50.458 10.55H50.328L49.34 13.046L44.608 21.262H43.958L38.94 13.02L38.004 10.55H37.874L38.238 13.254V25.5H36.21V7.3H37.822L43.516 16.608L44.374 18.636H44.426L45.232 16.556L50.666 7.3H52.356V25.5H50.198V13.28ZM57.2704 7.3H59.4284V25.5H57.2704V7.3ZM76.0948 9.224H70.4268V25.5H68.2688V9.224H62.6008V7.3H76.0948V9.224ZM78.7647 7.482C79.4234 7.36067 80.1774 7.26533 81.0267 7.196C81.8934 7.12667 82.682 7.092 83.3927 7.092C84.19 7.092 84.944 7.17867 85.6547 7.352C86.3827 7.52533 87.0154 7.81133 87.5527 8.21C88.1074 8.60867 88.5494 9.12867 88.8787 9.77C89.208 10.4113 89.3727 11.1913 89.3727 12.11C89.3727 13.5313 88.9827 14.684 88.2027 15.568C87.4227 16.452 86.4347 17.0413 85.2387 17.336L86.4867 18.298L91.0107 25.5H88.4887L83.4707 17.648L80.9227 17.258V25.5H78.7647V7.482ZM83.4447 8.964C83.2194 8.964 82.9854 8.964 82.7427 8.964C82.5 8.964 82.266 8.97267 82.0407 8.99C81.8154 9.00733 81.5987 9.02467 81.3907 9.042C81.2 9.05933 81.044 9.08533 80.9227 9.12V15.828H82.9507C84.1467 15.828 85.1347 15.5333 85.9147 14.944C86.6947 14.3547 87.0847 13.436 87.0847 12.188C87.0847 11.252 86.764 10.4807 86.1227 9.874C85.4814 9.26733 84.5887 8.964 83.4447 8.964ZM102.2 20.456H95.492L93.672 25.5H91.54L98.43 7.014H99.418L106.334 25.5H104.072L102.2 20.456ZM96.194 18.584H101.55L99.522 13.046L98.872 10.29H98.846L98.196 13.098L96.194 18.584ZM116.967 20.872C116.967 20.144 116.75 19.5547 116.317 19.104C115.884 18.636 115.338 18.2287 114.679 17.882C114.038 17.518 113.336 17.18 112.573 16.868C111.81 16.556 111.1 16.1833 110.441 15.75C109.8 15.2993 109.262 14.7533 108.829 14.112C108.396 13.4533 108.179 12.6213 108.179 11.616C108.179 10.1947 108.673 9.068 109.661 8.236C110.649 7.404 112.053 6.988 113.873 6.988C114.93 6.988 115.892 7.066 116.759 7.222C117.626 7.378 118.302 7.57733 118.787 7.82L118.137 9.718C117.738 9.52733 117.149 9.34533 116.369 9.172C115.606 8.99867 114.74 8.912 113.769 8.912C112.625 8.912 111.767 9.172 111.195 9.692C110.623 10.1947 110.337 10.7927 110.337 11.486C110.337 12.162 110.554 12.7253 110.987 13.176C111.42 13.6267 111.958 14.034 112.599 14.398C113.258 14.7447 113.968 15.0913 114.731 15.438C115.494 15.7847 116.196 16.192 116.837 16.66C117.496 17.1107 118.042 17.6567 118.475 18.298C118.908 18.9393 119.125 19.7367 119.125 20.69C119.125 21.47 118.986 22.172 118.709 22.796C118.432 23.42 118.024 23.9573 117.487 24.408C116.95 24.8587 116.3 25.2053 115.537 25.448C114.774 25.6907 113.908 25.812 112.937 25.812C111.637 25.812 110.562 25.708 109.713 25.5C108.864 25.3093 108.205 25.0927 107.737 24.85L108.465 22.9C108.864 23.1253 109.453 23.3507 110.233 23.576C111.013 23.784 111.888 23.888 112.859 23.888C113.431 23.888 113.968 23.836 114.471 23.732C114.974 23.6107 115.407 23.4287 115.771 23.186C116.135 22.926 116.421 22.6053 116.629 22.224C116.854 21.8427 116.967 21.392 116.967 20.872ZM121.81 16.4C121.81 13.3667 122.451 11.044 123.734 9.432C125.016 7.80267 126.845 6.988 129.22 6.988C130.502 6.988 131.612 7.21333 132.548 7.664C133.484 8.11467 134.255 8.756 134.862 9.588C135.486 10.4027 135.945 11.3907 136.24 12.552C136.534 13.696 136.682 14.9787 136.682 16.4C136.682 19.4333 136.032 21.7647 134.732 23.394C133.449 25.006 131.612 25.812 129.22 25.812C127.954 25.812 126.854 25.5867 125.918 25.136C124.999 24.6853 124.228 24.0527 123.604 23.238C122.997 22.406 122.546 21.418 122.252 20.274C121.957 19.1127 121.81 17.8213 121.81 16.4ZM124.098 16.4C124.098 17.4053 124.193 18.3587 124.384 19.26C124.592 20.1613 124.904 20.9587 125.32 21.652C125.736 22.328 126.264 22.874 126.906 23.29C127.564 23.6887 128.336 23.888 129.22 23.888C130.832 23.888 132.097 23.2813 133.016 22.068C133.934 20.8373 134.394 18.948 134.394 16.4C134.394 15.412 134.29 14.4673 134.082 13.566C133.891 12.6473 133.579 11.85 133.146 11.174C132.73 10.4807 132.192 9.93467 131.534 9.536C130.892 9.12 130.121 8.912 129.22 8.912C127.625 8.912 126.368 9.52733 125.45 10.758C124.548 11.9713 124.098 13.852 124.098 16.4ZM140.337 7.3H150.243V9.224H142.495V15.438H149.723V17.362H142.495V25.5H140.337V7.3ZM165.521 9.224H159.853V25.5H157.695V9.224H152.027V7.3H165.521V9.224Z" fill="#181425"/>
</svg>
